<svg width="27" height="27" viewBox="0 0 27 27" fill="none" xmlns="http://www.w3.org/2000/svg">
<path d="M19.1467 16C19.2533 15.12 19.3333 14.24 19.3333 13.3333C19.3333 12.4267 19.2533 11.5467 19.1467 10.6667H23.6533C23.8667 11.52 24 12.4133 24 13.3333C24 14.2533 23.8667 15.1467 23.6533 16M16.7867 23.4133C17.5867 21.9333 18.2 20.3333 18.6267 18.6667H22.56C21.2682 20.891 19.2188 22.576 16.7867 23.4133ZM16.4533 16H10.2133C10.08 15.12 10 14.24 10 13.3333C10 12.4267 10.08 11.5333 10.2133 10.6667H16.4533C16.5733 11.5333 16.6667 12.4267 16.6667 13.3333C16.6667 14.24 16.5733 15.12 16.4533 16ZM13.3333 23.9467C12.2267 22.3467 11.3333 20.5733 10.7867 18.6667H15.88C15.3333 20.5733 14.44 22.3467 13.3333 23.9467ZM8 8H4.10667C5.38485 5.76938 7.43288 4.08165 9.86667 3.25333C9.06667 4.73333 8.46667 6.33333 8 8ZM4.10667 18.6667H8C8.46667 20.3333 9.06667 21.9333 9.86667 23.4133C7.43769 22.5764 5.39238 20.8909 4.10667 18.6667ZM3.01333 16C2.8 15.1467 2.66667 14.2533 2.66667 13.3333C2.66667 12.4133 2.8 11.52 3.01333 10.6667H7.52C7.41333 11.5467 7.33333 12.4267 7.33333 13.3333C7.33333 14.24 7.41333 15.12 7.52 16M13.3333 2.70667C14.44 4.30667 15.3333 6.09333 15.88 8H10.7867C11.3333 6.09333 12.2267 4.30667 13.3333 2.70667ZM22.56 8H18.6267C18.2087 6.34881 17.5908 4.75481 16.7867 3.25333C19.24 4.09333 21.28 5.78667 22.56 8ZM13.3333 0C5.96 0 0 6 0 13.3333C0 16.8696 1.40476 20.2609 3.90524 22.7614C5.14336 23.9995 6.61321 24.9817 8.23089 25.6517C9.84856 26.3218 11.5824 26.6667 13.3333 26.6667C16.8696 26.6667 20.2609 25.2619 22.7614 22.7614C25.2619 20.2609 26.6667 16.8696 26.6667 13.3333C26.6667 11.5824 26.3218 9.84856 25.6517 8.23089C24.9817 6.61321 23.9995 5.14336 22.7614 3.90524C21.5233 2.66713 20.0535 1.685 18.4358 1.01494C16.8181 0.344877 15.0843 0 13.3333 0Z" fill="white"/>
</svg>
